<?xml version="1.0" encoding="UTF-8"?>
<!DOCTYPE svg PUBLIC "-//W3C//DTD SVG 1.1//EN" "http://www.w3.org/Graphics/SVG/1.1/DTD/svg11.dtd">
<svg xmlns="http://www.w3.org/2000/svg" version="1.1" width="500px" height="500px" style="shape-rendering:geometricPrecision; text-rendering:geometricPrecision; image-rendering:optimizeQuality; fill-rule:evenodd; clip-rule:evenodd" xmlns:xlink="http://www.w3.org/1999/xlink">
<g><path style="opacity:0.875" fill="#2b90d9" d="M 250.5,15.5 C 255.149,16.065 259.816,16.565 264.5,17C 268.032,20.3899 268.366,24.0566 265.5,28C 269.753,31.4204 270.587,35.5871 268,40.5C 266.581,41.4601 265.081,42.2935 263.5,43C 258.845,43.4992 254.179,43.6658 249.5,43.5C 250.129,34.1797 250.462,24.8464 250.5,15.5 Z M 254.5,19.5 C 256.857,19.3367 259.19,19.5034 261.5,20C 264.371,22.8402 264.037,25.1735 260.5,27C 258.527,27.4955 256.527,27.6621 254.5,27.5C 254.5,24.8333 254.5,22.1667 254.5,19.5 Z M 254.5,30.5 C 258.516,29.8999 262.016,30.8999 265,33.5C 265.675,38.3209 263.509,40.3209 258.5,39.5C 256.833,39.1667 255.167,38.8333 253.5,38.5C 254.393,35.9159 254.726,33.2492 254.5,30.5 Z"/></g>
<g><path style="opacity:0.871" fill="#2b90d9" d="M 222.5,17.5 C 224.467,17.2606 226.301,17.5939 228,18.5C 232.106,26.3783 235.939,34.3783 239.5,42.5C 238.277,43.6139 236.944,43.7805 235.5,43C 234.373,41.2467 233.373,39.4134 232.5,37.5C 231.5,37.1667 230.5,36.8333 229.5,36.5C 226.86,37.0951 224.193,37.4285 221.5,37.5C 221.425,40.2062 221.092,42.8728 220.5,45.5C 219.167,45.5 217.833,45.5 216.5,45.5C 218.628,36.1932 220.628,26.8599 222.5,17.5 Z M 225.5,23.5 C 228.044,26.2916 229.044,29.4583 228.5,33C 226.866,33.4935 225.199,33.6602 223.5,33.5C 223.788,30.0611 224.454,26.7278 225.5,23.5 Z"/></g>
<g><path style="opacity:0.888" fill="#2b90d9" d="M 286.5,18.5 C 291.652,19.432 296.652,20.932 301.5,23C 306.317,29.0307 306.817,35.5307 303,42.5C 300.394,45.9829 296.894,47.6495 292.5,47.5C 288.282,47.2578 284.282,46.2578 280.5,44.5C 282.377,35.775 284.377,27.1083 286.5,18.5 Z M 289.5,23.5 C 298.549,23.3762 302.382,27.7095 301,36.5C 298.792,43.1097 294.292,45.2764 287.5,43C 286.692,42.6924 286.025,42.1924 285.5,41.5C 286.962,35.5206 288.296,29.5206 289.5,23.5 Z"/></g>
<g><path style="opacity:0.877" fill="#2c90d9" d="M 184.5,24.5 C 186.121,24.7869 187.121,25.7869 187.5,27.5C 184.946,29.0205 182.279,30.3539 179.5,31.5C 181.932,38.2961 184.265,45.1294 186.5,52C 185.902,53.3012 184.902,54.1345 183.5,54.5C 180.45,47.6896 177.784,40.6896 175.5,33.5C 175.167,33.1667 174.833,32.8333 174.5,32.5C 171.133,34.9752 168.133,34.8085 165.5,32C 171.86,29.384 178.193,26.884 184.5,24.5 Z"/></g>
<g><path style="opacity:0.893" fill="#2b90d9" d="M 323.5,28.5 C 325.346,28.2222 326.68,28.8888 327.5,30.5C 325.167,36.5 322.833,42.5 320.5,48.5C 323.521,54.9349 327.688,55.9349 333,51.5C 334.975,45.904 337.142,40.404 339.5,35C 341.319,34.2172 342.652,34.7172 343.5,36.5C 340.942,43.2823 338.109,49.949 335,56.5C 328.001,59.954 322.001,58.6206 317,52.5C 316.333,50.1667 316.333,47.8333 317,45.5C 319.18,39.8122 321.347,34.1455 323.5,28.5 Z"/></g>
<g><path style="opacity:0.87" fill="#2b90d9" d="M 152.5,36.5 C 153.5,36.5 154.5,36.5 155.5,36.5C 155.762,37.9778 155.429,39.3112 154.5,40.5C 151.272,41.943 148.272,43.6096 145.5,45.5C 146.414,47.6641 147.581,49.6641 149,51.5C 152,49.8333 155,48.1667 158,46.5C 158.956,47.5786 159.789,48.7453 160.5,50C 157.006,51.5795 153.673,53.4128 150.5,55.5C 151.667,57.8333 152.833,60.1667 154,62.5C 157.194,60.5697 160.527,58.903 164,57.5C 165.169,58.0085 166.002,58.8419 166.5,60C 161.992,62.7545 157.326,65.2545 152.5,67.5C 147.802,59.943 143.468,52.1097 139.5,44C 143.896,41.4731 148.229,38.9731 152.5,36.5 Z"/></g>
<g><path style="opacity:0.872" fill="#2b90d9" d="M 358.5,43.5 C 363.357,45.5139 367.857,48.1806 372,51.5C 373.319,59.2368 370.152,63.2368 362.5,63.5C 362.826,67.8839 362.492,72.2172 361.5,76.5C 360.522,76.0233 359.689,75.3567 359,74.5C 358.828,70.1289 358.328,65.7956 357.5,61.5C 356.522,61.0233 355.689,60.3567 355,59.5C 353.291,62.4185 351.458,65.2518 349.5,68C 347.924,68.3876 346.591,67.8876 345.5,66.5C 350.11,58.9409 354.444,51.2742 358.5,43.5 Z M 360.5,48.5 C 363.765,49.9613 366.432,52.128 368.5,55C 367.327,58.5281 364.994,59.8614 361.5,59C 359.833,58 358.167,57 356.5,56C 358.494,53.8425 359.828,51.3425 360.5,48.5 Z"/></g>
<g><path style="opacity:0.883" fill="#2b90d9" d="M 122.5,52.5 C 123.822,52.33 124.989,52.6634 126,53.5C 130.71,60.4211 135.544,67.2544 140.5,74C 139.534,75.6779 138.201,76.3446 136.5,76C 133,71.1667 129.5,66.3333 126,61.5C 126.235,66.4071 126.069,71.2404 125.5,76C 120.674,75.7249 116.174,74.2249 112,71.5C 114.43,76.318 117.43,80.9847 121,85.5C 121.854,87.6073 121.188,88.9407 119,89.5C 113.225,82.7881 108.058,75.6215 103.5,68C 104.169,66.1525 105.503,64.9858 107.5,64.5C 112.167,66.8333 116.833,69.1667 121.5,71.5C 121.971,66.7181 121.637,61.8848 120.5,57C 120.519,55.167 121.185,53.667 122.5,52.5 Z"/></g>
<g><path style="opacity:0.999" fill="#3996c9" d="M 230.5,52.5 C 296.206,49.6406 350.373,72.6406 393,121.5C 435.185,177.193 445.519,238.526 424,305.5C 409.408,344.063 385.241,374.897 351.5,398C 350.552,398.483 349.552,398.649 348.5,398.5C 348.248,338.882 344.081,279.549 336,220.5C 331.63,192.686 324.297,165.686 314,139.5C 304.618,125.061 294.951,125.061 285,139.5C 282.667,144.833 280.333,150.167 278,155.5C 272.173,175.283 267.173,195.283 263,215.5C 257.885,245.871 252.551,276.205 247,306.5C 245.246,308.25 243.079,308.917 240.5,308.5C 232.168,267.337 224.668,226.004 218,184.5C 216.807,177.588 214.807,170.921 212,164.5C 206.396,153.738 198.562,151.738 188.5,158.5C 185.829,161.837 183.663,165.504 182,169.5C 175.529,189.443 170.529,209.776 167,230.5C 164.992,245.548 162.659,260.548 160,275.5C 159.333,280.5 159.333,285.5 160,290.5C 166.492,297.425 172.492,297.092 178,289.5C 181.574,263.056 185.907,236.722 191,210.5C 191.844,206.789 192.844,203.123 194,199.5C 195.523,197.38 197.356,197.047 199.5,198.5C 206.702,233.677 213.202,269.011 219,304.5C 221.54,314.454 223.874,324.454 226,334.5C 228.158,342.321 231.992,349.155 237.5,355C 243.415,357.514 248.749,356.68 253.5,352.5C 256.194,348.446 258.361,344.112 260,339.5C 268.882,294.206 277.549,248.873 286,203.5C 289.18,190.445 292.514,177.445 296,164.5C 297.726,163.424 299.559,163.257 301.5,164C 305.721,176.669 309.555,189.502 313,202.5C 324.901,270.975 330.234,339.975 329,409.5C 328.692,410.308 328.192,410.975 327.5,411.5C 253.728,442.584 185.728,433.418 123.5,384C 65.4909,329.845 46.3242,264.012 66,186.5C 81.6098,138.398 111.11,101.564 154.5,76C 165.804,70.2293 177.471,65.2293 189.5,61C 203.19,57.563 216.857,54.7297 230.5,52.5 Z"/></g>
<g><path style="opacity:0.87" fill="#2b90d9" d="M 388.5,62.5 C 394.412,64.9102 398.412,69.0768 400.5,75C 399.531,81.1661 395.864,83.9995 389.5,83.5C 388.838,87.4659 388.505,91.4659 388.5,95.5C 387.178,95.67 386.011,95.3366 385,94.5C 384.501,90.9843 384.667,87.4843 385.5,84C 385.862,80.7122 384.528,79.0455 381.5,79C 379.707,81.7953 377.54,84.2953 375,86.5C 373.978,85.646 373.145,84.646 372.5,83.5C 377.857,76.4814 383.191,69.4814 388.5,62.5 Z M 389.5,68.5 C 392.608,69.7727 394.941,71.9394 396.5,75C 392.9,80.7886 389.233,80.622 385.5,74.5C 387.252,72.7541 388.585,70.7541 389.5,68.5 Z"/></g>
<g><path style="opacity:0.869" fill="#2c92da" d="M 88.5,79.5 C 95.6182,85.1159 102.285,91.2825 108.5,98C 107.941,100.188 106.607,100.854 104.5,100C 100.833,96.3333 97.1667,92.6667 93.5,89C 92.8333,88.3333 92.1667,88.3333 91.5,89C 93.7082,93.2808 94.8748,97.7808 95,102.5C 93.9383,103.097 92.7716,103.43 91.5,103.5C 87.8504,102.499 84.1837,101.999 80.5,102C 84.3666,106.202 88.5332,110.035 93,113.5C 93.3087,115.391 92.4753,116.725 90.5,117.5C 83.9489,111.448 77.6156,105.281 71.5,99C 72.1241,96.7095 73.6241,95.5428 76,95.5C 80.8084,96.4374 85.4751,97.7707 90,99.5C 89.2417,94.0457 87.7417,88.7124 85.5,83.5C 86.5244,82.1482 87.5244,80.8149 88.5,79.5 Z"/></g>
<g><path style="opacity:0.861" fill="#2b90d9" d="M 419.5,90.5 C 420.962,91.4577 422.295,92.6244 423.5,94C 419.127,102.579 414.627,111.079 410,119.5C 408.764,118.601 407.93,117.434 407.5,116C 408.827,113.547 409.661,111.047 410,108.5C 408.167,106.667 406.333,104.833 404.5,103C 402.095,102.852 399.761,103.352 397.5,104.5C 396,104.547 395,103.881 394.5,102.5C 402.772,98.196 411.105,94.196 419.5,90.5 Z M 415.5,96.5 C 416.239,96.369 416.906,96.5357 417.5,97C 416.192,99.7951 414.526,102.295 412.5,104.5C 410.833,103.5 409.5,102.167 408.5,100.5C 410.904,99.1568 413.238,97.8234 415.5,96.5 Z"/></g>
<g><path style="opacity:0.867" fill="#2b90d9" d="M 437.5,112.5 C 439.609,113.052 440.442,114.386 440,116.5C 437.252,118.458 434.418,120.291 431.5,122C 433.632,125.764 436.132,129.264 439,132.5C 442,130.5 445,128.5 448,126.5C 448.956,127.579 449.789,128.745 450.5,130C 443.238,135.213 435.738,140.047 428,144.5C 426.831,143.991 425.998,143.158 425.5,142C 428.557,139.277 431.89,136.944 435.5,135C 433.368,131.236 430.868,127.736 428,124.5C 424.918,126.625 421.751,128.625 418.5,130.5C 416.404,129.38 416.07,127.88 417.5,126C 424.405,121.725 431.072,117.225 437.5,112.5 Z"/></g>
<g><path style="opacity:0.884" fill="#2b90d9" d="M 55.5,118.5 C 65.4119,120.228 75.0786,122.728 84.5,126C 82.1945,128.774 79.3611,129.274 76,127.5C 72.8011,129.039 70.6344,131.539 69.5,135C 70.8333,137.333 72.1667,139.667 73.5,142C 72.9931,144.341 71.8265,144.841 70,143.5C 65.3847,136.55 60.3847,129.884 55,123.5C 54.6155,121.803 54.7822,120.137 55.5,118.5 Z M 60.5,124.5 C 60.7352,123.903 61.2352,123.57 62,123.5C 64.7741,124.536 67.6074,125.369 70.5,126C 69.3601,127.973 68.0267,129.807 66.5,131.5C 64.448,129.122 62.448,126.789 60.5,124.5 Z"/></g>
<g><path style="opacity:0.875" fill="#2b90d9" d="M 41.5,142.5 C 49.8379,145.752 58.0046,149.418 66,153.5C 66.3876,155.076 65.8876,156.409 64.5,157.5C 61.1667,155.833 57.8333,154.167 54.5,152.5C 52.1024,156.129 50.1024,159.962 48.5,164C 52.1756,165.838 55.8422,167.671 59.5,169.5C 59.1345,170.902 58.3012,171.902 57,172.5C 49.4411,169.304 41.9411,165.971 34.5,162.5C 33.5713,161.311 33.238,159.978 33.5,158.5C 37.4439,158.968 41.1105,160.301 44.5,162.5C 46.3682,158.597 48.3682,154.764 50.5,151C 47.5,149.5 44.5,148 41.5,146.5C 40.3744,145.192 40.3744,143.858 41.5,142.5 Z"/></g>
<g><path style="opacity:0.875" fill="#2c92d9" d="M 457.5,145.5 C 459.772,146.797 460.605,148.797 460,151.5C 456.955,155.756 453.788,159.923 450.5,164C 456.204,164.367 461.87,165.034 467.5,166C 468.167,167.333 468.833,168.667 469.5,170C 461.507,173.913 453.341,177.413 445,180.5C 442.991,179.518 442.491,178.185 443.5,176.5C 449.208,174.097 454.875,171.597 460.5,169C 455.526,168.746 450.692,167.913 446,166.5C 446.174,162.595 447.841,159.261 451,156.5C 451.374,155.584 451.874,154.75 452.5,154C 446.816,155.415 441.316,157.582 436,160.5C 435.044,159.421 434.211,158.255 433.5,157C 441.611,153.249 449.611,149.416 457.5,145.5 Z"/></g>
<g><path style="opacity:0.871" fill="#2c91d9" d="M 26.5,178.5 C 33.6103,179.861 40.6103,181.694 47.5,184C 52.6687,189.896 52.6687,195.896 47.5,202C 44.2976,203.483 40.9643,203.817 37.5,203C 32.2824,201.572 27.1157,200.072 22,198.5C 21.2172,196.681 21.7172,195.348 23.5,194.5C 29.4058,196.477 35.4058,198.143 41.5,199.5C 45.5684,199.002 47.5684,196.669 47.5,192.5C 47.2547,189.832 45.9214,187.998 43.5,187C 37.2881,185.782 31.2881,183.948 25.5,181.5C 26.1272,180.583 26.4606,179.583 26.5,178.5 Z"/></g>
<g><path style="opacity:0.864" fill="#2b91d9" d="M 447.5,190.5 C 457.158,191.573 466.825,192.573 476.5,193.5C 477.052,195.331 477.052,196.997 476.5,198.5C 468.663,203.251 460.996,208.251 453.5,213.5C 452.369,211.926 452.202,210.259 453,208.5C 455.391,207.571 457.225,206.071 458.5,204C 458.802,196.968 455.468,193.635 448.5,194C 447.663,192.989 447.33,191.822 447.5,190.5 Z M 460.5,195.5 C 464.163,195.952 467.83,196.452 471.5,197C 468.5,198.833 465.5,200.667 462.5,202.5C 461.579,200.223 460.913,197.89 460.5,195.5 Z"/></g>
<g><path style="opacity:0.866" fill="#2b91d9" d="M 18.5,216.5 C 27.5353,216.781 36.5353,217.447 45.5,218.5C 45.5,219.833 45.5,221.167 45.5,222.5C 39.1784,221.723 32.8451,221.556 26.5,222C 30.8786,224.055 34.212,227.055 36.5,231C 36.1667,231.833 35.8333,232.667 35.5,233.5C 31.5422,235.43 27.5422,237.263 23.5,239C 30.1556,239.711 36.8223,240.211 43.5,240.5C 43.5,241.833 43.5,243.167 43.5,244.5C 34.089,244.438 24.7557,243.605 15.5,242C 16.1667,240.333 16.8333,238.667 17.5,237C 22.2955,235.102 26.9622,232.935 31.5,230.5C 27.258,227.128 22.758,224.128 18,221.5C 17.3603,219.735 17.5269,218.068 18.5,216.5 Z"/></g>
<g><path style="opacity:0.892" fill="#2b90d9" d="M 469.5,221.5 C 473.5,221.5 477.5,221.5 481.5,221.5C 481.66,223.199 481.494,224.866 481,226.5C 475.167,231 469.333,235.5 463.5,240C 469.839,240.348 476.173,240.182 482.5,239.5C 482.33,240.822 482.663,241.989 483.5,243C 474.205,244.259 464.871,245.093 455.5,245.5C 455.34,243.801 455.506,242.134 456,240.5C 462.167,235.667 468.333,230.833 474.5,226C 467.857,226.216 461.191,226.716 454.5,227.5C 454.286,225.856 454.62,224.356 455.5,223C 460.351,222.826 465.018,222.326 469.5,221.5 Z"/></g>
</svg>
